<?xml version="1.0" encoding="UTF-8" standalone="no"?>
<!-- Created with Inkscape (http://www.inkscape.org/) -->
<svg xmlns:dc="http://purl.org/dc/elements/1.1/" xmlns:cc="http://creativecommons.org/ns#" xmlns:rdf="http://www.w3.org/1999/02/22-rdf-syntax-ns#" xmlns:svg="http://www.w3.org/2000/svg" xmlns="http://www.w3.org/2000/svg" xmlns:sodipodi="http://sodipodi.sourceforge.net/DTD/sodipodi-0.dtd" xmlns:inkscape="http://www.inkscape.org/namespaces/inkscape" id="svg2985" version="1.1" inkscape:version="0.48.1 " width="520" height="287" sodipodi:docname="magnetopause.svg">
  <metadata id="metadata2991">
    <rdf:RDF>
      <cc:Work rdf:about="">
        <dc:format>image/svg+xml</dc:format>
        <dc:type rdf:resource="http://purl.org/dc/dcmitype/StillImage"/>
        <dc:title/>
      </cc:Work>
    </rdf:RDF>
  </metadata>
  <defs id="defs2989">
    <marker inkscape:stockid="Arrow1Mend" orient="auto" refY="0.0" refX="0.0" id="Arrow1Mend" style="overflow:visible;">
      <path id="path3803" d="M 0.0,0.0 L 5.0,-5.0 L -12.5,0.0 L 5.0,5.0 L 0.0,0.0 z " style="fill-rule:evenodd;stroke:#000000;stroke-width:1.0pt;marker-start:none;" transform="scale(0.4) rotate(180) translate(10,0)"/>
    </marker>
    <marker inkscape:stockid="Arrow1Mend" orient="auto" refY="0" refX="0" id="Arrow1Mend-1" style="overflow:visible">
      <path inkscape:connector-curvature="0" id="path3803-8" d="M 0,0 5,-5 -12.5,0 5,5 0,0 z" style="fill-rule:evenodd;stroke:#000000;stroke-width:1pt;marker-start:none" transform="matrix(-0.4,0,0,-0.4,-4,0)"/>
    </marker>
    <marker inkscape:stockid="Arrow1Mend" orient="auto" refY="0" refX="0" id="Arrow1Mend-5" style="overflow:visible">
      <path inkscape:connector-curvature="0" id="path3803-2" d="M 0,0 5,-5 -12.5,0 5,5 0,0 z" style="fill-rule:evenodd;stroke:#000000;stroke-width:1pt;marker-start:none" transform="matrix(-0.4,0,0,-0.4,-4,0)"/>
    </marker>
    <marker inkscape:stockid="Arrow1Mend" orient="auto" refY="0" refX="0" id="Arrow1Mend-9" style="overflow:visible">
      <path inkscape:connector-curvature="0" id="path3803-7" d="M 0,0 5,-5 -12.5,0 5,5 0,0 z" style="fill-rule:evenodd;stroke:#000000;stroke-width:1pt;marker-start:none" transform="matrix(-0.4,0,0,-0.4,-4,0)"/>
    </marker>
    <marker inkscape:stockid="Arrow1Mend" orient="auto" refY="0" refX="0" id="Arrow1Mend-2" style="overflow:visible">
      <path inkscape:connector-curvature="0" id="path3803-9" d="M 0,0 5,-5 -12.5,0 5,5 0,0 z" style="fill-rule:evenodd;stroke:#000000;stroke-width:1pt;marker-start:none" transform="matrix(-0.4,0,0,-0.4,-4,0)"/>
    </marker>
    <marker inkscape:stockid="Arrow1Mend" orient="auto" refY="0" refX="0" id="Arrow1Mend-17" style="overflow:visible">
      <path inkscape:connector-curvature="0" id="path3803-4" d="M 0,0 5,-5 -12.5,0 5,5 0,0 z" style="fill-rule:evenodd;stroke:#000000;stroke-width:1pt;marker-start:none" transform="matrix(-0.4,0,0,-0.4,-4,0)"/>
    </marker>
    <marker inkscape:stockid="Arrow1Mend" orient="auto" refY="0" refX="0" id="Arrow1Mend-94" style="overflow:visible">
      <path inkscape:connector-curvature="0" id="path3803-88" d="M 0,0 5,-5 -12.5,0 5,5 0,0 z" style="fill-rule:evenodd;stroke:#000000;stroke-width:1pt;marker-start:none" transform="matrix(-0.4,0,0,-0.4,-4,0)"/>
    </marker>
    <marker inkscape:stockid="Arrow1Mend" orient="auto" refY="0" refX="0" id="Arrow1Mend-51" style="overflow:visible">
      <path inkscape:connector-curvature="0" id="path3803-41" d="M 0,0 5,-5 -12.5,0 5,5 0,0 z" style="fill-rule:evenodd;stroke:#000000;stroke-width:1pt;marker-start:none" transform="matrix(-0.4,0,0,-0.4,-4,0)"/>
    </marker>
    <marker inkscape:stockid="Arrow1Mend" orient="auto" refY="0" refX="0" id="Arrow1Mend-3" style="overflow:visible">
      <path inkscape:connector-curvature="0" id="path3803-6" d="M 0,0 5,-5 -12.5,0 5,5 0,0 z" style="fill-rule:evenodd;stroke:#000000;stroke-width:1pt;marker-start:none" transform="matrix(-0.4,0,0,-0.4,-4,0)"/>
    </marker>
    <marker inkscape:stockid="Arrow1Mend" orient="auto" refY="0" refX="0" id="Arrow1Mend-37" style="overflow:visible">
      <path inkscape:connector-curvature="0" id="path3803-70" d="M 0,0 5,-5 -12.5,0 5,5 0,0 z" style="fill-rule:evenodd;stroke:#000000;stroke-width:1pt;marker-start:none" transform="matrix(-0.4,0,0,-0.4,-4,0)"/>
    </marker>
    <marker inkscape:stockid="Arrow1Mend" orient="auto" refY="0" refX="0" id="Arrow1Mend-0" style="overflow:visible">
      <path inkscape:connector-curvature="0" id="path3803-26" d="M 0,0 5,-5 -12.5,0 5,5 0,0 z" style="fill-rule:evenodd;stroke:#000000;stroke-width:1pt;marker-start:none" transform="matrix(-0.4,0,0,-0.4,-4,0)"/>
    </marker>
    <marker inkscape:stockid="Arrow1Mend" orient="auto" refY="0" refX="0" id="Arrow1Mend-8" style="overflow:visible">
      <path inkscape:connector-curvature="0" id="path3803-5" d="M 0,0 5,-5 -12.5,0 5,5 0,0 z" style="fill-rule:evenodd;stroke:#000000;stroke-width:1pt;marker-start:none" transform="matrix(-0.4,0,0,-0.4,-4,0)"/>
    </marker>
  </defs>
  <sodipodi:namedview pagecolor="#ffffff" bordercolor="#666666" borderopacity="1" objecttolerance="10" gridtolerance="10" guidetolerance="10" inkscape:pageopacity="0" inkscape:pageshadow="2" inkscape:window-width="1304" inkscape:window-height="746" id="namedview2987" showgrid="false" inkscape:zoom="1.3054279" inkscape:cx="261.70976" inkscape:cy="152.08457" inkscape:window-x="54" inkscape:window-y="-8" inkscape:window-maximized="1" inkscape:current-layer="svg2985"/>
  <g id="g6095" transform="matrix(0.97648604,0,0,0.97648604,7.6424529,3.0679426)">
    <path sodipodi:nodetypes="cc" inkscape:connector-curvature="0" id="path3021" d="M 1.0833333,4.7916665 C 1.625,287 1.4895833,282.9375 1.4895833,282.9375" style="fill:none;stroke:#ff0000;stroke-width:1.02408016px;stroke-linecap:butt;stroke-linejoin:miter;stroke-opacity:1;marker-end:none"/>
    <path sodipodi:nodetypes="cc" inkscape:connector-curvature="0" id="path3021-2" d="M 108.51411,5.0937532 C 108.44641,278.09375 108.4803,282.56249 108.4803,282.56249" style="fill:none;stroke:#ff0000;stroke-width:1.02408016px;stroke-linecap:butt;stroke-linejoin:miter;stroke-opacity:1;marker-end:none"/>
    <path sodipodi:nodetypes="cccccscc" inkscape:connector-curvature="0" id="path3021-2-7" d="m 132.61193,5.6052128 c -0.011,3.1726462 -0.0218,6.3093212 -0.0326,9.4104342 m -0.0797,23.088267 c -0.0673,19.54167 0.18741,53.695389 0.17362,60.479163 15.67914,1.499323 27.51965,25.818343 27.72049,38.646973 0.0363,6.92304 1.00733,6.3616 -0.27019,18.74166 -3.35945,32.55545 -28.39654,40.96044 -28.39654,40.96044 l 0.0385,86.27723" style="fill:none;stroke:#ff0000;stroke-width:1.02408016px;stroke-linecap:butt;stroke-linejoin:miter;stroke-opacity:1;marker-end:none"/>
    <path sodipodi:nodetypes="cc" inkscape:connector-curvature="0" id="path3021-2-3" d="m 216.45282,6.2510279 c -0.006,24.6441841 0.1554,44.7061571 0.20793,63.0298451" style="fill:none;stroke:#ff0000;stroke-width:1.02408016px;stroke-linecap:butt;stroke-linejoin:miter;stroke-opacity:1;marker-end:none"/>
    <path sodipodi:nodetypes="cc" inkscape:connector-curvature="0" id="path3021-2-3-0" d="m 215.18948,223.82883 c -0.006,24.64418 0.0877,40.23741 0.14022,58.56109" style="fill:none;stroke:#ff0000;stroke-width:1.02408016px;stroke-linecap:butt;stroke-linejoin:miter;stroke-opacity:1;marker-end:none"/>
    <path sodipodi:nodetypes="cc" inkscape:connector-curvature="0" id="path3021-2-3-0-2" d="m 327.11135,221.52674 c -0.006,24.64418 0.02,42.74262 0.0725,61.0663" style="fill:none;stroke:#ff0000;stroke-width:1.02408016px;stroke-linecap:butt;stroke-linejoin:miter;stroke-opacity:1;marker-end:none"/>
    <path sodipodi:nodetypes="cc" inkscape:connector-curvature="0" id="path3021-2-3-0-26" d="m 463.67907,168.10488 c -0.006,24.64418 -0.0477,95.35199 0.005,113.67567" style="fill:none;stroke:#ff0000;stroke-width:1.02408016px;stroke-linecap:butt;stroke-linejoin:miter;stroke-opacity:1;marker-end:none"/>
    <path sodipodi:nodetypes="cc" inkscape:connector-curvature="0" id="path3021-2-3-0-26-6" d="M 463.67892,0.66216769 C 463.67292,25.306348 463.36039,106.03499 463.41309,124.35867" style="fill:none;stroke:#ff0000;stroke-width:1.02408016px;stroke-linecap:butt;stroke-linejoin:miter;stroke-opacity:1;marker-end:url(#Arrow1Mend)"/>
    <g id="g3101">
      <path inkscape:connector-curvature="0" id="path3021-2-3-0-26-5" d="m 326.40625,6.625 c -0.006,24.640023 -0.30272,46.044515 -0.25,64.375 l 1,0 c -0.0527,-18.316873 0.244,-39.726663 0.25,-64.375 l -1,0 z" style="font-size:medium;font-style:normal;font-variant:normal;font-weight:normal;font-stretch:normal;text-indent:0;text-align:start;text-decoration:none;line-height:normal;letter-spacing:normal;word-spacing:normal;text-transform:none;direction:ltr;block-progression:tb;writing-mode:lr-tb;text-anchor:start;baseline-shift:baseline;color:#000000;fill:#ff0000;fill-opacity:1;stroke:none;stroke-width:1px;marker:none;visibility:visible;display:inline;overflow:visible;enable-background:accumulate;font-family:Sans;-inkscape-font-specification:Sans"/>
      <path inkscape:connector-curvature="0" id="path3107" d="m 326.63076,67.00452 -2.00575,-1.99424 2.02013,6.994219 1.97986,-7.005723 -1.99424,2.005744 z" style="fill:#ff0000;fill-rule:evenodd;stroke:#000000;stroke-width:0.40963206pt;marker-start:none"/>
    </g>
    <path sodipodi:nodetypes="cc" inkscape:connector-curvature="0" id="path3021-2-3-6" d="m 216.06969,70.537163 c -71.506,13.810851 -56.71959,36.851997 -53.95873,67.363187" style="fill:none;stroke:#ff0000;stroke-width:1.02408016px;stroke-linecap:butt;stroke-linejoin:miter;stroke-opacity:1;marker-end:none"/>
    <path sodipodi:nodetypes="csc" inkscape:connector-curvature="0" id="path3021-2-3-6-5" d="M 149.12529,8.2142469 C 118.72965,55.119628 83.248586,100.99435 86.275104,150.21994 c 2.409209,39.1852 23.960946,83.5641 62.516446,137.41998" style="fill:none;stroke:#00ff00;stroke-width:3.07224059;stroke-linecap:butt;stroke-linejoin:miter;stroke-miterlimit:4;stroke-opacity:1;stroke-dasharray:18.43344333, 18.43344333;stroke-dashoffset:0;marker-end:none"/>
    <path inkscape:transform-center-x="-3.02372" inkscape:transform-center-y="-3.9583775" inkscape:connector-curvature="0" id="path3107-5" d="m 164.69563,92.245574 -0.63058,-2.757246 -2.02777,6.992006 5.41559,-4.865324 -2.75724,0.630564 z" style="fill:#ff0000;fill-rule:evenodd;stroke:#000000;stroke-width:0.40963206pt;marker-start:none"/>
    <path sodipodi:nodetypes="csc" inkscape:connector-curvature="0" id="path3021-2-3-6-50" d="M 325.80343,74.636115 C 298.01675,100.10203 262.38106,95.584452 230.19264,89.502032 193.32077,82.534614 160.87415,86.788658 162.83428,137.53055" style="fill:none;stroke:#ff0000;stroke-width:1.02408016px;stroke-linecap:butt;stroke-linejoin:miter;stroke-opacity:1;marker-end:none"/>
    <path sodipodi:nodetypes="csc" inkscape:connector-curvature="0" id="path3021-2-3-6-50-3" d="m 162.22326,156.41136 c 1.78668,40.90341 13.70509,63.96044 82.61079,44.53859 31.21958,-8.7996 80.42266,9.74496 82.2542,19.86185" style="fill:none;stroke:#ff0000;stroke-width:1.02408016px;stroke-linecap:butt;stroke-linejoin:miter;stroke-opacity:1;marker-end:none"/>
    <path sodipodi:nodetypes="csc" inkscape:connector-curvature="0" id="path3021-2-3-6-0" d="m 215.20087,223.99891 c -0.12619,-5.78694 -44.77666,-13.06775 -55.18487,-25.28957 -5.98957,-7.03324 -2.83382,-22.17451 1.3287,-42.55239" style="fill:none;stroke:#ff0000;stroke-width:1.02408016px;stroke-linecap:butt;stroke-linejoin:miter;stroke-opacity:1;marker-end:none"/>
    <path sodipodi:nodetypes="csssc" inkscape:connector-curvature="0" id="path3021-2-3-6-50-2" d="m 463.708,126.64369 c -18.23041,35.1747 -60.66875,20.25133 -86.50743,-5.36621 -25.28452,-25.068119 -57.91374,-20.32022 -66.79712,-17.99705 -35.85497,9.37678 -41.20792,21.37193 -85.07078,0.57577 -33.90652,-16.075682 -60.47722,11.84124 -61.94169,33.13268" style="fill:none;stroke:#ff0000;stroke-width:1.02408016px;stroke-linecap:butt;stroke-linejoin:miter;stroke-opacity:1;marker-end:none"/>
    <path sodipodi:nodetypes="csssc" inkscape:connector-curvature="0" id="path3021-2-3-6-50-2-9" d="m 463.46574,168.29376 c -18.23041,-35.1747 -60.66875,-20.25133 -86.50743,5.36621 -25.28452,25.06812 -57.91374,20.32022 -66.79712,17.99705 -35.85497,-9.37678 -41.20792,-21.37193 -85.07078,-0.57577 -33.90652,16.07568 -60.66873,-13.46906 -62.1332,-34.7605" style="fill:none;stroke:#ff0000;stroke-width:1.02408016px;stroke-linecap:butt;stroke-linejoin:miter;stroke-opacity:1;marker-end:none"/>
    <path sodipodi:nodetypes="cssscsssc" inkscape:connector-curvature="0" id="path3021-2-3-6-0-3" d="m 165.65888,156.08018 c 11.73266,32.8259 40.13212,20.45203 52.48508,12.96439 14.47821,-8.77585 22.00961,-21.73396 43.19799,-21.93307 20.80364,-0.19549 28.97287,16.96624 55.20606,17.39185 27.23299,0.44183 33.68568,-13.88891 33.65564,-17.36066 -0.0139,-4.79206 -6.09422,-18.34416 -33.32721,-17.90233 -26.23319,0.42561 -34.40479,17.76162 -55.20606,17.39185 -18.81859,-0.33453 -27.21802,-14.77681 -42.85945,-21.25599 -14.3165,-5.93035 -41.83575,-19.99693 -53.56841,12.82897" style="fill:none;stroke:#ff0000;stroke-width:1.02408016px;stroke-linecap:butt;stroke-linejoin:miter;stroke-opacity:1;marker-end:none"/>
    <path sodipodi:nodetypes="csssc" inkscape:connector-curvature="0" id="path3021-2-3-6-0-9" d="m 167.10594,139.19181 c -0.074,-3.39188 12.20752,-9.56063 22.21199,-8.16551 9.52624,1.32842 27.01815,8.68601 26.97522,16.50055 -0.0423,7.69272 -24.11123,16.46106 -32.195,16.20872 -9.37958,-0.29279 -15.56299,-3.62242 -16.95255,-8.83364" style="fill:none;stroke:#ff0000;stroke-width:1.02408016px;stroke-linecap:butt;stroke-linejoin:miter;stroke-opacity:1;marker-end:none"/>
    <path sodipodi:nodetypes="ccc" inkscape:connector-curvature="0" id="path3021-2-3-6-0-9-0" d="m 169.32318,141.5967 c 4.01122,-6.37664 21.29737,-4.82937 21.29139,5.76213 -0.0721,7.90378 -15.64903,8.81593 -21.11631,5.88549" style="fill:none;stroke:#ff0000;stroke-width:1.02408016px;stroke-linecap:butt;stroke-linejoin:miter;stroke-opacity:1;marker-end:none"/>
    <path sodipodi:nodetypes="ccc" inkscape:connector-curvature="0" id="path3021-2-3-6-0-9-0-5" d="m 156.62486,140.51773 c -5.22997,-5.15789 -17.37028,-3.06895 -17.3643,7.52255 0.0721,7.90378 12.66986,9.76385 17.73089,5.20841" style="fill:none;stroke:#ff0000;stroke-width:1.02408016px;stroke-linecap:butt;stroke-linejoin:miter;stroke-opacity:1;marker-end:none"/>
    <path sodipodi:nodetypes="ccc" inkscape:connector-curvature="0" id="path3021-2-3-6-0-9-0-5-3" d="m 158.74365,138.97437 c -17.82372,-16.93914 -33.07861,-3.61061 -33.07263,8.47047 0.34293,8.98711 15.91986,23.44093 32.35589,8.32299" style="fill:none;stroke:#ff0000;stroke-width:1.02408016px;stroke-linecap:butt;stroke-linejoin:miter;stroke-opacity:1;marker-end:none"/>
    <path sodipodi:nodetypes="cscsc" inkscape:connector-curvature="0" id="path3021-2-3-6-0-9-0-5-3-2" d="m 159.80715,138.62579 c -8.7336,-8.30016 -14.796,-20.91088 -32.93841,-21.09902 -16.45577,-0.17066 -18.68935,23.81438 -18.6863,29.97574 0.19146,5.0177 -0.34136,29.72448 18.52694,28.65991 22.61449,-1.27593 24.98618,-13.25341 32.24562,-19.93067" style="fill:none;stroke:#ff0000;stroke-width:1.02408016px;stroke-linecap:butt;stroke-linejoin:miter;stroke-opacity:1;marker-end:none"/>
    <g transform="matrix(0.99546422,0.09513667,-0.09513667,0.99546422,-36.742382,-9.5758136)" id="g4234">
      <g id="g3017" transform="translate(26.541667,-10.15625)">
        <path sodipodi:nodetypes="sccs" inkscape:connector-curvature="0" id="path2995-1" d="m 196.28646,147.25 c 0,5.34739 -4.5168,9.6823 -10.08855,9.6823 l 0,-19.36459 c 5.57175,0 10.08855,4.33491 10.08855,9.68229 z" style="fill:#000000;fill-rule:evenodd;stroke:none"/>
        <path inkscape:connector-curvature="0" id="path2995" d="m 196.08333,147.58853 c 0,5.34739 -4.5168,9.6823 -10.08855,9.6823 -5.57174,0 -10.08854,-4.33491 -10.08854,-9.6823 0,-5.34738 4.5168,-9.68229 10.08854,-9.68229 5.57175,0 10.08855,4.33491 10.08855,9.68229 z" style="fill:none;stroke:#000000;stroke-width:1.02408016px;stroke-linecap:butt;stroke-linejoin:miter;stroke-opacity:1"/>
      </g>
      <path sodipodi:nodetypes="sccs" inkscape:connector-curvature="0" id="path2995-1-3" d="m 202.8203,137.36458 c 0,5.34739 4.5168,9.6823 10.08855,9.6823 l -0.14965,-18.91743 c -5.57175,0 -9.9389,3.88775 -9.9389,9.23513 z" style="fill:#f2f2f2;fill-rule:evenodd;stroke:none"/>
    </g>
    <path inkscape:transform-center-x="-0.13522" inkscape:transform-center-y="-4.079915" inkscape:connector-curvature="0" id="path3107-5-7-9-9-8-1" d="m 216.72837,65.092926 2.0411,-1.958023 -2.14492,6.956954 -1.85423,-7.040002 1.95805,2.041071 z" style="fill:#ff0000;fill-rule:evenodd;stroke:#000000;stroke-width:0.40963206pt;marker-start:none"/>
    <path sodipodi:nodetypes="ssssscsssss" inkscape:connector-curvature="0" id="path3021-2-3-6-5-2" d="m 108.41548,146.29286 c 0.0427,29.79222 17.28842,53.00025 62.1573,71.77712 32.09375,13.43069 85.22426,-3.42327 121.57914,1.37087 50.55526,6.66675 66.57482,-4.97774 92.71521,-23.87189 26.602,-19.2278 29.95523,-24.04186 49.97601,-24.64358 49.32378,-1.4824 83.58165,-2.29445 84.14107,-22.99829 C 518.00777,124.19513 484.86776,129.3434 435.7335,123.74424 419.40543,121.88355 404.62868,117.27069 382.92516,96.285745 360.74031,74.835407 323.03354,69.651113 295.91358,74.174976 259.1803,80.30243 223.51672,66.123667 185.89987,72.68947 c -60.14162,10.49737 -77.52465,45.48588 -77.48439,73.60339 z" style="fill:none;stroke:#00ffff;stroke-width:3.07224059;stroke-linecap:butt;stroke-linejoin:miter;stroke-miterlimit:4;stroke-opacity:1;stroke-dasharray:9.21672166, 9.21672166;stroke-dashoffset:0;marker-end:none"/>
    <g transform="translate(99.584205,21.448906)" id="g4506">
      <path style="fill:#ffff00;fill-opacity:0.98235294;fill-rule:evenodd;stroke:#00ffff;stroke-width:1.02408016;stroke-linecap:round;stroke-linejoin:round;stroke-miterlimit:4;stroke-opacity:1;stroke-dasharray:none;stroke-dashoffset:0" d="m -41.64257,91.950147 -0.04548,12.781253 -53.276375,0 c -0.39064,0 -0.70489,2.95642 -0.70489,6.625 l 0,26.3125 c 0,3.66858 0.31425,6.625 0.70489,6.625 l 53.185421,0 -0.04547,13.15625 23.920933,-32.625 -23.739025,-32.875003 z" id="rect4492" inkscape:connector-curvature="0"/>
      <text xml:space="preserve" style="font-size:14.35008335px;font-style:normal;font-weight:bold;line-height:125%;letter-spacing:0px;word-spacing:0px;fill:#000000;fill-opacity:1;stroke:none;font-family:Sans;-inkscape-font-specification:Sans Bold" x="-116.53495" y="102.28466" id="text4502" sodipodi:linespacing="125%" transform="scale(0.77908585,1.2835556)"><tspan sodipodi:role="line" id="tspan4504" x="-116.53495" y="102.28466">Solar wind</tspan></text>
    </g>
    <text sodipodi:linespacing="125%" id="text4511" y="98.66642" x="27.094501" style="font-size:10.4706831px;font-style:normal;font-weight:normal;line-height:125%;letter-spacing:0px;word-spacing:0px;fill:#000000;fill-opacity:1;stroke:none;font-family:Sans;-inkscape-font-specification:Sans" xml:space="preserve"><tspan y="98.66642" x="27.094501" id="tspan4513" sodipodi:role="line">Reconnection</tspan></text>
    <text sodipodi:linespacing="125%" id="text4511-5" y="176.54739" x="284.09549" style="font-size:10.4706831px;font-style:normal;font-weight:normal;line-height:125%;letter-spacing:0px;word-spacing:0px;fill:#000000;fill-opacity:1;stroke:none;font-family:Sans;-inkscape-font-specification:Sans" xml:space="preserve"><tspan y="176.54739" x="284.09549" id="tspan4513-5" sodipodi:role="line">Reconnection</tspan></text>
    <text sodipodi:linespacing="125%" id="text4511-9" y="227.10553" x="368.55057" style="font-size:10.4706831px;font-style:normal;font-weight:normal;line-height:125%;letter-spacing:0px;word-spacing:0px;fill:#000000;fill-opacity:1;stroke:none;font-family:Sans;-inkscape-font-specification:Sans" xml:space="preserve"><tspan y="227.10553" x="368.55057" id="tspan4513-2" sodipodi:role="line">Magnetotail</tspan></text>
    <text sodipodi:linespacing="125%" id="text4511-9-9" y="209.97844" x="17.325224" style="font-size:10.4706831px;font-style:normal;font-weight:normal;line-height:125%;letter-spacing:0px;word-spacing:0px;fill:#000000;fill-opacity:1;stroke:none;font-family:Sans;-inkscape-font-specification:Sans" xml:space="preserve"><tspan y="209.97844" x="17.325224" id="tspan4513-2-3" sodipodi:role="line">Magnetopause</tspan></text>
    <text transform="matrix(0.53055063,-0.84765325,0.84765325,0.53055063,0,0)" sodipodi:linespacing="125%" id="text4511-6" y="126.06799" x="21.001673" style="font-size:10.4706831px;font-style:normal;font-weight:normal;line-height:125%;letter-spacing:0px;word-spacing:0px;fill:#000000;fill-opacity:1;stroke:none;font-family:Sans;-inkscape-font-specification:Sans" xml:space="preserve"><tspan y="126.06799" x="21.001673" id="tspan4513-9" sodipodi:role="line">Bow Shock</tspan></text>
    <path sodipodi:nodetypes="cc" inkscape:connector-curvature="0" id="path3021-2-3-7" d="M 73.101456,102.70153 105.188,146.18491" style="fill:none;stroke:#000000;stroke-width:1.02408016px;stroke-linecap:butt;stroke-linejoin:miter;stroke-opacity:1;marker-end:none"/>
    <path sodipodi:nodetypes="cc" inkscape:connector-curvature="0" id="path3021-2-3-7-0" d="M 89.040061,205.94581 117.87661,184.42919" style="fill:none;stroke:#000000;stroke-width:1.02408016px;stroke-linecap:butt;stroke-linejoin:miter;stroke-opacity:1;marker-end:none"/>
    <path sodipodi:nodetypes="cc" inkscape:connector-curvature="0" id="path3021-2-3-7-0-2" d="m 261.83172,149.88331 20.98239,19.37921" style="fill:none;stroke:#000000;stroke-width:1.02408016px;stroke-linecap:butt;stroke-linejoin:miter;stroke-opacity:1;marker-end:none"/>
    <path inkscape:transform-center-x="-4.09207" inkscape:transform-center-y="0.293064" inkscape:connector-curvature="0" id="path3107-5-3" d="m 265.24428,115.55907 2.07049,-1.92694 -7.06727,1.74748 6.9237,2.24996 -1.92692,-2.0705 z" style="fill:#ff0000;fill-rule:evenodd;stroke:#000000;stroke-width:0.40963206pt;marker-start:none"/>
    <path inkscape:transform-center-x="4.089805" inkscape:transform-center-y="0.216884" inkscape:connector-curvature="0" id="path3107-5-6" d="m 259.95448,179.88217 -1.93587,2.06213 6.93338,-2.21996 -7.05964,-1.77805 2.06213,1.93588 z" style="fill:#ff0000;fill-rule:evenodd;stroke:#000000;stroke-width:0.40963206pt;marker-start:none"/>
    <path inkscape:transform-center-x="3.999795" inkscape:transform-center-y="2.944344" inkscape:connector-curvature="0" id="path3107-5-7" d="m 216.60387,170.1389 -0.6704,2.74783 4.94319,-5.34461 -7.02062,1.92637 2.74783,0.67041 z" style="fill:#ff0000;fill-rule:evenodd;stroke:#000000;stroke-width:0.40963206pt;marker-start:none"/>
    <path inkscape:transform-center-x="4.1008" inkscape:transform-center-y="2.643029" inkscape:connector-curvature="0" id="path3107-5-7-0" d="m 200.88781,159.63099 -0.93394,2.66978 5.43861,-4.83958 -7.17445,1.23584 2.66978,0.93396 z" style="fill:#ff0000;fill-rule:evenodd;stroke:#000000;stroke-width:0.40963206pt;marker-start:none"/>
    <path inkscape:transform-center-x="-4.08963" inkscape:transform-center-y="2.684454" inkscape:connector-curvature="0" id="path3107-5-7-9" d="m 203.03889,135.65897 0.89948,2.68159 -5.37582,-4.90923 7.15793,1.32815 -2.68159,0.89949 z" style="fill:#ff0000;fill-rule:evenodd;stroke:#000000;stroke-width:0.40963206pt;marker-start:none"/>
    <path inkscape:transform-center-x="-4.08963" inkscape:transform-center-y="2.684454" inkscape:connector-curvature="0" id="path3107-5-7-9-4" d="m 219.45987,126.16886 0.89948,2.68159 -5.37582,-4.90923 7.15793,1.32815 -2.68159,0.89949 z" style="fill:#ff0000;fill-rule:evenodd;stroke:#000000;stroke-width:0.40963206pt;marker-start:none"/>
    <path inkscape:transform-center-x="-4.11379" inkscape:transform-center-y="0.434024" inkscape:connector-curvature="0" id="path3107-5-7-9-9" d="m 322.73719,129.44151 1.87578,2.11693 -6.86669,-2.41836 7.10783,-1.57437 -2.11692,1.8758 z" style="fill:#ff0000;fill-rule:evenodd;stroke:#000000;stroke-width:0.40963206pt;marker-start:none"/>
    <path inkscape:transform-center-x="4.11379" inkscape:transform-center-y="0.434024" inkscape:connector-curvature="0" id="path3107-5-7-9-9-1" d="m 315.87709,164.59819 -1.87578,2.11693 6.86669,-2.41836 -7.10783,-1.57437 2.11692,1.8758 z" style="fill:#ff0000;fill-rule:evenodd;stroke:#000000;stroke-width:0.40963206pt;marker-start:none"/>
    <path inkscape:transform-center-x="2.811755" inkscape:transform-center-y="-4.042396" inkscape:connector-curvature="0" id="path3107-5-7-9-9-8" d="m 157.82475,194.70299 0.8237,-2.70582 1.52899,7.11773 -5.05852,-5.23557 2.70583,0.82366 z" style="fill:#ff0000;fill-rule:evenodd;stroke:#000000;stroke-width:0.40963206pt;marker-start:none"/>
    <path inkscape:transform-center-x="-3.390295" inkscape:transform-center-y="-3.742916" inkscape:connector-curvature="0" id="path3107-5-7-9-9-8-9" d="m 148.37847,184.55004 2.82057,-0.21043 -6.08324,3.99924 3.05219,-6.60939 0.21048,2.82058 z" style="fill:#ff0000;fill-rule:evenodd;stroke:#000000;stroke-width:0.40963206pt;marker-start:none"/>
    <path inkscape:transform-center-x="-4.17447" inkscape:transform-center-y="-1.975366" inkscape:connector-curvature="0" id="path3107-5-7-9-9-8-6" d="m 138.30645,174.20047 2.44906,1.41496 -7.27909,-0.12232 6.24496,-3.74171 -1.41493,2.44907 z" style="fill:#ff0000;fill-rule:evenodd;stroke:#000000;stroke-width:0.40963206pt;marker-start:none"/>
    <path inkscape:transform-center-x="-4.14503" inkscape:transform-center-y="2.437724" inkscape:connector-curvature="0" id="path3107-5-7-9-9-8-3" d="m 138.3856,161.2667 1.09749,2.60681 -5.72791,-4.49343 7.23721,0.78909 -2.60679,1.09753 z" style="fill:#ff0000;fill-rule:evenodd;stroke:#000000;stroke-width:0.40963206pt;marker-start:none"/>
    <path inkscape:transform-center-x="4.139495" inkscape:transform-center-y="-0.711061" inkscape:connector-curvature="0" id="path3107-5-7-9-9-8-0" d="m 129.99133,118.07215 -1.79672,-2.18444 6.77319,2.66906 -7.16088,1.31212 2.18441,-1.79674 z" style="fill:#ff0000;fill-rule:evenodd;stroke:#000000;stroke-width:0.40963206pt;marker-start:none"/>
    <path inkscape:transform-center-x="4.065945" inkscape:transform-center-y="0.071654" inkscape:connector-curvature="0" id="path3107-5-7-9-9-8-00" d="m 139.44719,131.09584 -2.01314,-1.98676 7.01304,1.95375 -6.98663,2.04618 1.98673,-2.01317 z" style="fill:#ff0000;fill-rule:evenodd;stroke:#000000;stroke-width:0.40963206pt;marker-start:none"/>
    <path inkscape:transform-center-x="3.50497" inkscape:transform-center-y="-3.645941" inkscape:connector-curvature="0" id="path3107-5-7-9-9-8-7" d="m 143.80376,103.69979 0.11226,-2.82619 3.2802,6.49924 -6.21865,-3.78527 2.82619,0.11222 z" style="fill:#ff0000;fill-rule:evenodd;stroke:#000000;stroke-width:0.40963206pt;marker-start:none"/>
    <path inkscape:transform-center-x="-0.13522" inkscape:transform-center-y="-4.079915" inkscape:connector-curvature="0" id="path3107-5-7-9-9-8-1-2" d="m 463.82827,278.00545 2.0411,-1.95803 -2.14492,6.95696 -1.85423,-7.04 1.95805,2.04107 z" style="fill:#ff0000;fill-rule:evenodd;stroke:#000000;stroke-width:0.40963206pt;marker-start:none"/>
    <path inkscape:transform-center-x="-0.13522" inkscape:transform-center-y="-4.079915" inkscape:connector-curvature="0" id="path3107-5-7-9-9-8-1-8" d="m 327.05743,279.76587 2.0411,-1.95803 -2.14492,6.95696 -1.85423,-7.04001 1.95805,2.04108 z" style="fill:#ff0000;fill-rule:evenodd;stroke:#000000;stroke-width:0.40963206pt;marker-start:none"/>
    <path inkscape:transform-center-x="-0.13522" inkscape:transform-center-y="-4.079915" inkscape:connector-curvature="0" id="path3107-5-7-9-9-8-1-0" d="m 215.33869,279.76586 2.0411,-1.95803 -2.14492,6.95696 -1.85423,-7.04 1.95805,2.04107 z" style="fill:#ff0000;fill-rule:evenodd;stroke:#000000;stroke-width:0.40963206pt;marker-start:none"/>
    <path inkscape:transform-center-x="-0.13522" inkscape:transform-center-y="-4.079915" inkscape:connector-curvature="0" id="path3107-5-7-9-9-8-1-6" d="m 131.71889,281.12004 2.0411,-1.95803 -2.14492,6.95696 -1.85423,-7.04001 1.95805,2.04108 z" style="fill:#ff0000;fill-rule:evenodd;stroke:#000000;stroke-width:0.40963206pt;marker-start:none"/>
    <path inkscape:transform-center-x="-0.13522" inkscape:transform-center-y="-4.079915" inkscape:connector-curvature="0" id="path3107-5-7-9-9-8-1-20" d="m 108.56264,281.45857 2.0411,-1.95802 -2.14492,6.95695 -1.85423,-7.04 1.95805,2.04107 z" style="fill:#ff0000;fill-rule:evenodd;stroke:#000000;stroke-width:0.40963206pt;marker-start:none"/>
    <path inkscape:transform-center-x="-0.13522" inkscape:transform-center-y="-4.079915" inkscape:connector-curvature="0" id="path3107-5-7-9-9-8-1-9" d="m 1.4480583,282.27107 2.0411,-1.95803 -2.14492,6.95696 -1.85422997,-7.04 1.95804997,2.04107 z" style="fill:#ff0000;fill-rule:evenodd;stroke:#000000;stroke-width:0.40963206pt;marker-start:none"/>
  </g>
</svg>